<?xml version="1.0" encoding="utf-8"?>
<!-- Generator: Adobe Illustrator 16.0.0, SVG Export Plug-In . SVG Version: 6.00 Build 0)  -->
<!DOCTYPE svg PUBLIC "-//W3C//DTD SVG 1.1//EN" "http://www.w3.org/Graphics/SVG/1.1/DTD/svg11.dtd">
<svg version="1.1"
	 id="svg2" inkscape:version="0.48.2 r9819" sodipodi:docname="bitcoin-logo-noshadow.svg" xmlns:dc="http://purl.org/dc/elements/1.1/" xmlns:cc="http://creativecommons.org/ns#" xmlns:rdf="http://www.w3.org/1999/02/22-rdf-syntax-ns#" xmlns:svg="http://www.w3.org/2000/svg" xmlns:sodipodi="http://sodipodi.sourceforge.net/DTD/sodipodi-0.dtd" xmlns:inkscape="http://www.inkscape.org/namespaces/inkscape"
	 xmlns="http://www.w3.org/2000/svg" xmlns:xlink="http://www.w3.org/1999/xlink" x="0px" y="0px" width="1024px" height="1024px"
	 viewBox="0 0 1024 1024" enable-background="new 0 0 1024 1024" xml:space="preserve">
<circle fill-rule="evenodd" clip-rule="evenodd" fill="#304FFE" cx="513" cy="498" r="498.26"/>
<path fill-rule="evenodd" clip-rule="evenodd" fill="#FFFFFF" d="M561.821,461.02c-27.631,18.1-64.14,27-109.53,27h-22.91V238.79
	c26.92-5.45,48.4-8.18,64.43-8.18c35.799,0,64.43,11.78,86.2,35.189c21.76,23.41,32.641,54.59,32.641,93.51
	C612.651,405.28,595.61,439.18,561.821,461.02z M832.571,782.21c-34.65-3.729-63-14.069-85.051-31.021
	c-16.609-12.359-36.08-36.35-58.129-71.969L580.01,504.4c88.91-21.26,133.44-71.39,133.44-150.26c0-34.04-10.021-63.2-30.07-87.48
	c-23.479-28.15-55.55-46.83-95.93-55.88c-23.771-5.17-61.56-7.75-113.39-7.75H264.45v9.189h21.61c21.62,0,37.95,6.61,48.97,19.82
	c7.88,9.48,11.89,33.33,11.89,71.83v184.15h-82.47v27.58h82.47V691.57c0,34.189-3.01,56.17-8.88,65.65
	c-10.45,16.659-27.78,24.989-51.98,24.989h-21.61v9.2h247.4v-9.2h-22.47c-21.19,0-37.23-6.46-48.11-19.681
	c-8.02-9.479-11.89-33.039-11.89-70.959V515.599h59.28L661.04,791.41h171.53V782.21z"/>
</svg>
